<svg class="boxy-brown" xmlns="http://www.w3.org/2000/svg">
    <defs>

    </defs>
    <symbol id="play-icon" viewBox="-253 -150 680 410">
            <title>Play</title>
    <path fill="#047D61" fill-opacity="1" class="ac-youtube-button" d="M166.3,19.3c-1.9-7.3-6.2-13.5-13.5-15.5C139.5,0.3,85,0,85,0S30.5,0.3,17.2,3.9
	C9.9,5.8,5.7,12,3.7,19.3C0.1,32.6,0,60,0,60s0.1,27.4,3.7,40.7c2,7.3,6.2,13.5,13.6,15.5C30.5,119.7,85,120,85,120
	s54.5-0.3,67.8-3.9c7.3-1.9,11.6-8.1,13.5-15.5C169.9,87.4,170,60,170,60S169.9,32.6,166.3,19.3z"></path>

    <path fill="#FFFFFF" d="M112.5,60l-45-25v50"></path>
    </symbol>
</svg>
</svg>